<?xml version="1.0" encoding="UTF-8"?>
<svg id="Layer_2" data-name="Layer 2" xmlns="http://www.w3.org/2000/svg" viewBox="0 0 200.08 67.18">
  <defs>
    <style>
      .cls-1 {
        fill-rule: evenodd;
      }

      .cls-1, .cls-2 {
        fill: #034ea1;
        stroke-width: 0px;
      }
    </style>
  </defs>
  <g id="Layer_1-2" data-name="Layer 1">
    <g>
      <polygon class="cls-2" points="95.93 0 113.63 0 123.45 35.15 133.41 0 151.28 0 151.28 52.46 140.14 52.46 140.14 8.82 127.31 52.46 119.51 52.46 106.53 8.89 106.53 52.46 95.93 52.46 95.93 0"/>
      <polygon class="cls-2" points="54.81 0 86.05 0 86.05 8.77 67.39 8.77 67.39 21.32 85.02 21.32 85.02 30.09 67.39 30.09 67.39 43.62 86.92 43.62 86.92 52.46 54.81 52.46 54.81 0"/>
      <polygon class="cls-2" points=".84 .1 44.71 .1 44.71 12.67 17.42 55.19 200.08 55.19 200.08 67.18 0 67.18 0 53.82 26.89 12.09 .84 12.09 .84 .1"/>
      <polygon class="cls-1" points="199.9 0 194.56 0 186.47 0 165.82 51.91 179.21 51.91 199.9 0"/>
      <polygon class="cls-1" points="155.06 0 160.4 0 168.49 0 175.83 18.43 169.13 35.26 169.13 35.28 155.06 0"/>
      <polygon class="cls-1" points="44.64 27.65 .92 27.65 .92 39.63 37.74 39.63 44.64 27.65"/>
    </g>
  </g>
</svg>